# xmcd
# Track frame offsets:
# 150
# 16462
# 39824
# 56406
# 78048
# 94637
# 107489
# 123861
# 139648
# 165810
#
# Disc length: 2432 seconds
# Revision: 0
# Processed by: cddbd v1.5PL3 Copyright (c) Steve Scherf et al.
# Submitted via: VisiTrax 2.9.9.202 - For more info visit www.synapsa.com
#
DISCID=60097e0a
DTITLE=Burnt River Band - Boogie With The River
DYEAR=1980
DGENRE=Blues
TTITLE0=Boogie With The River
TTITLE1=Got To Love Somebody
TTITLE2=Get Out Of My Life Woman
TTITLE3=Broken Down HD Blues
TTITLE4=New Tatoo
TTITLE5=Big City Woman
TTITLE6=Rock With Me Tonight
TTITLE7=Key To The Highway
TTITLE8=Everyday I Get The Blues
TTITLE9=Midnight Special
EXTD=
EXTT0=
EXTT1=
EXTT2=
EXTT3=
EXTT4=
EXTT5=
EXTT6=
EXTT7=
EXTT8=
EXTT9=
PLAYORDER=
